Coordinates
version=1
nRows=49
nColumns=12
inDegrees=yes

Units are S.I. units (second, meters, Newtons, ...)
Angles are in degrees

endheader
time	SC_y	SC_z	SC_x	AC_y	AC_z	AC_x	GH_y	GH_z	GH_yy	EL_x	PS_y
       0.0              -31.32          1.998          46.76          39.66         0.7368         -3.907         -121.7          6.988         -14.26          117.3          93.62
   0.01924              -31.33          1.998          46.76          39.66         0.7371         -3.906         -121.7          6.992         -14.26          117.3           93.6
   0.03849              -31.33          1.997          46.77          39.66         0.7374         -3.904         -121.7          6.996         -14.27          117.3          93.59
   0.05773              -31.33          1.997          46.77          39.66         0.7377         -3.903         -121.6          7.001         -14.27          117.3          93.58
   0.07698              -31.34          1.996          46.78          39.67         0.7381         -3.901         -121.6          7.005         -14.28          117.3          93.56
   0.09622              -31.34          1.995          46.78          39.67         0.7384         -3.899         -121.5           7.01         -14.29          117.3          93.55
    0.1155              -31.34          1.995          46.79          39.67         0.7388         -3.897         -121.5          7.015          -14.3          117.3          93.53
    0.1347              -31.35          1.994          46.79          39.68         0.7392         -3.895         -121.4          7.021          -14.3          117.3          93.51
     0.154              -31.35          1.993           46.8          39.68         0.7397         -3.893         -121.4          7.027         -14.31          117.3          93.49
    0.1732              -31.36          1.992          46.81          39.69         0.7402          -3.89         -121.3          7.033         -14.32          117.4          93.47
    0.1924              -31.36          1.991          46.81          39.69         0.7407         -3.888         -121.3           7.04         -14.33          117.4          93.45
    0.2117              -31.37           1.99          46.82          39.69         0.7413         -3.885         -121.2          7.048         -14.34          117.4          93.42
    0.2309              -31.37          1.989          46.83           39.7         0.7419         -3.882         -121.1          7.056         -14.36          117.4           93.4
    0.2502              -31.38          1.988          46.84           39.7         0.7426         -3.878         -121.1          7.064         -14.37          117.4          93.37
    0.2694              -31.38          1.987          46.85          39.71         0.7433         -3.875         -121.0          7.074         -14.38          117.4          93.34
    0.2887              -31.39          1.986          46.86          39.72          0.744         -3.871         -120.9          7.084          -14.4          117.4          93.31
    0.3079               -31.4          1.984          46.87          39.72         0.7449         -3.867         -120.8          7.095         -14.41          117.4          93.27
    0.3272              -31.41          1.983          46.88          39.73         0.7458         -3.862         -120.7          7.107         -14.43          117.4          93.23
    0.3464              -31.42          1.981           46.9          39.74         0.7468         -3.857         -120.6           7.12         -14.45          117.4          93.19
    0.3656              -31.43          1.979          46.91          39.75         0.7479         -3.852         -120.5          7.135         -14.47          117.4          93.14
    0.3849              -31.44          1.977          46.93          39.76         0.7491         -3.846         -120.3          7.151         -14.49          117.4          93.09
    0.4041              -31.45          1.975          46.95          39.77         0.7504         -3.839         -120.2          7.168         -14.52          117.4          93.03
    0.4234              -31.46          1.972          46.97          39.78         0.7519         -3.832         -120.0          7.187         -14.55          117.4          92.97
    0.4426              -31.48          1.969          46.99           39.8         0.7535         -3.824         -119.8          7.208         -14.58          117.4           92.9
    0.4619              -31.49          1.966          47.02          39.81         0.7553         -3.815         -119.6          7.232         -14.61          117.4          92.82
    0.4811              -31.51          1.963          47.04          39.83         0.7573         -3.805         -119.4          7.259         -14.65          117.4          92.74
    0.5004              -31.53          1.959          47.07          39.85         0.7596         -3.793         -119.2          7.288          -14.7          117.4          92.64
    0.5196              -31.56          1.955          47.11          39.87         0.7621         -3.781         -118.9          7.321         -14.74          117.4          92.53
    0.5388              -31.58           1.95          47.15          39.89         0.7649         -3.766         -118.6          7.359          -14.8          117.4          92.41
    0.5581              -31.61          1.944          47.19          39.92         0.7682          -3.75         -118.2          7.402         -14.86          117.5          92.27
    0.5773              -31.65          1.938          47.24          39.95         0.7719         -3.732         -117.8          7.451         -14.93          117.5          92.11
    0.5966              -31.69           1.93           47.3          39.99         0.7762          -3.71         -117.3          7.507         -15.01          117.5          91.93
    0.6158              -31.73          1.922          47.37          40.03         0.7811         -3.686         -116.7          7.571         -15.11          117.5          91.72
    0.6351              -31.78          1.912          47.45          40.08         0.7868         -3.657         -116.1          7.646         -15.22          117.5          91.48
    0.6543              -31.84          1.901          47.54          40.13         0.7934         -3.624         -115.3          7.734         -15.35          117.6          91.19
    0.6736              -31.92          1.887          47.65           40.2         0.8013         -3.585         -114.5          7.838          -15.5          117.6          90.86
    0.6928               -32.0          1.871          47.78          40.28         0.8107         -3.538         -113.4          7.961         -15.68          117.6          90.46
     0.712              -32.11          1.852          47.93          40.37         0.8219         -3.482         -112.1          8.108          -15.9          117.7          89.98
    0.7313              -32.23          1.828          48.12          40.49         0.8354         -3.414         -110.6          8.287         -16.16          117.7           89.4
    0.7505              -32.38            1.8          48.35          40.63          0.852         -3.331         -108.7          8.505         -16.48          117.8          88.69
    0.7698              -32.57          1.765          48.63           40.8         0.8725         -3.229         -106.4          8.774         -16.87          117.9          87.81
     0.789               -32.8          1.721          48.98          41.01          0.898         -3.102         -103.6          9.109         -17.36          118.0          86.72
    0.8083               -33.1          1.665          49.42          41.29         0.9301         -2.941         -99.95          9.532         -17.98          118.1          85.35
    0.8275              -33.48          1.595          49.99          41.63         0.9709         -2.737         -95.35          10.07         -18.76          118.2           83.6
    0.8468              -33.96          1.505          50.71          42.07          1.023         -2.476         -89.46          10.76         -19.77          118.5          81.37
     0.866              -34.57           1.39          51.63          42.64           1.09          -2.14         -81.91          11.64         -21.06          118.7           78.5
    0.8852              -35.36          1.242          52.81          43.36          1.176         -1.712         -72.26          12.77         -22.71          119.0          74.83
    0.9045              -36.35          1.057           54.3          44.27          1.284         -1.174         -60.12          14.18         -24.79          119.5          70.22
    0.9237              -37.55         0.8311          56.11          45.37          1.415        -0.5173         -45.33          15.91         -27.31          120.0          64.61
